<svg width="40" height="40" viewBox="0 0 40 40" fill="none" xmlns="http://www.w3.org/2000/svg">
<path d="M32.3742 7.62578C30.7521 5.98763 28.8223 4.68612 26.6957 3.79603C24.5691 2.90594 22.2875 2.44481 19.9822 2.43914C17.6768 2.43347 15.393 2.88336 13.262 3.76297C11.131 4.64258 9.19487 5.93457 7.56472 7.56472C5.93457 9.19487 4.64258 11.131 3.76297 13.262C2.88336 15.393 2.43347 17.6768 2.43914 19.9822C2.44481 22.2875 2.90594 24.5691 3.79603 26.6957C4.68612 28.8223 5.98763 30.7521 7.62578 32.3742C9.24789 34.0124 11.1777 35.3139 13.3043 36.204C15.4309 37.0941 17.7125 37.5552 20.0178 37.5609C22.3232 37.5665 24.607 37.1166 26.738 36.237C28.8689 35.3574 30.8051 34.0654 32.4353 32.4353C34.0654 30.8051 35.3574 28.8689 36.237 26.738C37.1166 24.607 37.5665 22.3232 37.5609 20.0178C37.5552 17.7125 37.0941 15.4309 36.204 13.3043C35.3139 11.1777 34.0124 9.24789 32.3742 7.62578ZM14.375 16.25C14.7458 16.25 15.1084 16.36 15.4167 16.566C15.725 16.772 15.9654 17.0649 16.1073 17.4075C16.2492 17.7501 16.2863 18.1271 16.214 18.4908C16.1416 18.8545 15.963 19.1886 15.7008 19.4508C15.4386 19.713 15.1045 19.8916 14.7408 19.964C14.3771 20.0363 14.0001 19.9992 13.6575 19.8573C13.3149 19.7154 13.022 19.475 12.816 19.1667C12.61 18.8584 12.5 18.4958 12.5 18.125C12.4994 17.8786 12.5475 17.6345 12.6415 17.4067C12.7355 17.179 12.8736 16.972 13.0478 16.7978C13.222 16.6236 13.429 16.4855 13.6567 16.3915C13.8845 16.2975 14.1286 16.2494 14.375 16.25ZM27.4742 24.5445C26.5367 27.693 23.5523 30 20.0039 30C16.4555 30 13.4711 27.693 12.5258 24.5445C12.4993 24.4508 12.4952 24.3521 12.5136 24.2565C12.5321 24.1608 12.5727 24.0708 12.6321 23.9936C12.6915 23.9164 12.7682 23.8542 12.8559 23.8119C12.9437 23.7696 13.0401 23.7484 13.1375 23.75H26.8633C26.9606 23.7485 27.0569 23.7698 27.1446 23.8122C27.2323 23.8545 27.3088 23.9168 27.3681 23.994C27.4275 24.0711 27.468 24.1611 27.4864 24.2567C27.5048 24.3523 27.5006 24.4508 27.4742 24.5445ZM25.625 20C25.2542 20 24.8916 19.89 24.5833 19.684C24.275 19.478 24.0346 19.1851 23.8927 18.8425C23.7508 18.4999 23.7137 18.1229 23.786 17.7592C23.8584 17.3955 24.037 17.0614 24.2992 16.7992C24.5614 16.537 24.8955 16.3584 25.2592 16.286C25.6229 16.2137 25.9999 16.2508 26.3425 16.3927C26.6851 16.5346 26.978 16.775 27.184 17.0833C27.39 17.3916 27.5 17.7542 27.5 18.125C27.5006 18.3714 27.4525 18.6155 27.3585 18.8433C27.2645 19.071 27.1264 19.278 26.9522 19.4522C26.778 19.6264 26.571 19.7645 26.3433 19.8585C26.1155 19.9525 25.8714 20.0006 25.625 20Z" fill="#FFCF30"/>
</svg>
